<?xml version="1.0" encoding="UTF-8"?>
<!DOCTYPE svg PUBLIC "-//W3C//DTD SVG 1.1//EN" "http://www.w3.org/Graphics/SVG/1.1/DTD/svg11.dtd">
<!-- Creator: CorelDRAW X5 -->
<svg xmlns="http://www.w3.org/2000/svg" xml:space="preserve" width="24px" height="19px" shape-rendering="geometricPrecision" text-rendering="geometricPrecision" image-rendering="optimizeQuality" fill-rule="evenodd" clip-rule="evenodd"
viewBox="0 0 2399972 1897822"
 xmlns:xlink="http://www.w3.org/1999/xlink">
 <g id="Warstwa_x0020_1">
  <metadata id="CorelCorpID_0Corel-Layer"/>
  <path fill="#FEFEFE" fill-rule="nonzero" d="M1288525 -28l709 0 709 0 379978 0 99551 0c30274,0 45410,17688 45410,53007l0 1370388c0,13464 2154,22734 6321,27779 4167,5017 12189,7568 23981,7568l496735 0c38692,0 58053,16044 58053,47933l0 310417c0,16781 -5471,30302 -16412,40393 -10942,10120 -26560,15137 -46686,15137l-1026721 0c-25200,0 -42973,-5074 -53007,-15137 -10063,-10063 -15137,-26078 -15137,-47961l0 -1395644 -249842 0 0 923740c0,201880 -49237,345736 -147654,431540 -98417,85803 -249445,128719 -453026,128719 -95895,0 -200208,-10120 -312912,-30274 -30302,-5074 -51335,-15562 -63127,-31577 -11764,-15987 -16809,-41640 -15137,-76959l22734 -287712c3345,-38692 20154,-58024 50456,-58024 20211,0 40393,2494 60575,7568 37020,6690 66471,10063 88355,10063 63920,0 112704,-18510 146350,-55501 33647,-37020 50484,-96745 50484,-179203l0 -1138234c0,-18453 4620,-32768 13861,-42888 9269,-10091 21458,-15137 36623,-15137l326064 0 150914 0 1389 0 340407 0z"/>
 </g>
</svg>
