<?xml version="1.0" encoding="UTF-8"?>
<!DOCTYPE svg PUBLIC "-//W3C//DTD SVG 1.1//EN" "http://www.w3.org/Graphics/SVG/1.1/DTD/svg11.dtd">
<!-- Creator: CorelDRAW X5 -->
<svg xmlns="http://www.w3.org/2000/svg" xml:space="preserve" width="14.8167mm" height="14.8168mm" style="shape-rendering:geometricPrecision; text-rendering:geometricPrecision; image-rendering:optimizeQuality; fill-rule:evenodd; clip-rule:evenodd"
viewBox="0 0 99728 99729"
 xmlns:xlink="http://www.w3.org/1999/xlink">
 <defs>
  <style type="text/css">
   <![CDATA[
    .fil1 {fill:none}
    .fil0 {fill:#36464E}
   ]]>
  </style>
   <clipPath id="id0">
    <path d="M49864 0c-27550,0 -49864,22315 -49864,49864 0,27550 22314,49864 49864,49864 27550,0 49864,-22314 49864,-49864 0,-27550 -22315,-49864 -49864,-49864z"/>
   </clipPath>
 </defs>
 <g id="Warstwa_x0020_1">
  <metadata id="CorelCorpID_0Corel-Layer"/>
  <g>
  </g>
  <g style="clip-path:url(#id0)">
   <g>
    <rect class="fil0" transform="matrix(2.62224 -2.62224 0.947214 0.947214 -6222.41 93292.8)" width="37950" height="13365"/>
    <rect class="fil0" transform="matrix(2.62224 2.62224 -0.947214 0.947214 6435.97 -6221.06)" width="37950" height="13365"/>
   </g>
  </g>
  <path class="fil1" d="M49864 0c-27550,0 -49864,22315 -49864,49864 0,27550 22314,49864 49864,49864 27550,0 49864,-22314 49864,-49864 0,-27550 -22315,-49864 -49864,-49864z"/>
 </g>
</svg>
