<?xml version="1.0" encoding="UTF-8"?>
<!DOCTYPE svg PUBLIC "-//W3C//DTD SVG 1.1//EN" "http://www.w3.org/Graphics/SVG/1.1/DTD/svg11.dtd">
<!-- Creator: CorelDRAW X5 -->
<svg xmlns="http://www.w3.org/2000/svg" xml:space="preserve" width="139px" height="22px" shape-rendering="geometricPrecision" text-rendering="geometricPrecision" image-rendering="optimizeQuality" fill-rule="evenodd" clip-rule="evenodd"
viewBox="0 0 1614136 254830"
 xmlns:xlink="http://www.w3.org/1999/xlink">
 <g id="Warstwa_x0020_1">
  <metadata id="CorelCorpID_0Corel-Layer"/>
  <g id="_741615632">
   <path fill="#FEFEFE" fill-rule="nonzero" d="M173016 0l92 0 95 0 51022 0 13364 0c4068,0 6101,2371 6101,7115l0 184005c0,1809 289,3054 847,3730 561,673 1638,1018 3218,1018l66700 0c5194,0 7795,2154 7795,6436l0 41680c0,2252 -735,4068 -2203,5424 -1468,1356 -3566,2032 -6268,2032l-137863 0c-3382,0 -5766,-680 -7115,-2032 -1353,-1353 -2032,-3503 -2032,-6439l0 -187397 -33550 0 0 124030c0,27108 -6606,46425 -19822,57947 -13216,11518 -33491,17281 -60830,17281 -12874,0 -26882,-1356 -42015,-4065 -4068,-680 -6892,-2088 -8475,-4239 -1579,-2144 -2256,-5592 -2032,-10333l3050 -38633c450,-5194 2709,-7792 6774,-7792 2715,0 5424,338 8133,1018 4971,900 8928,1353 11863,1353 8586,0 15134,-2486 19652,-7453 4521,-4971 6780,-12993 6780,-24061l0 -152832c0,-2482 621,-4403 1862,-5759 1244,-1356 2883,-2032 4915,-2032l43782 0 20266 0 187 0 45709 0z"/>
   <path fill="#FEFEFE" fill-rule="nonzero" d="M732597 75566c-9174,-10980 -21408,-16470 -36696,-16470 -10983,0 -19635,2502 -25959,7506 -6324,5004 -9486,12024 -9486,21057 0,11676 7851,20295 23559,25854l29607 10218c12093,4170 20850,9522 26271,16053 5421,6534 8133,14526 8133,23979 0,13065 -4761,23283 -14283,30648 -9522,7368 -22623,11052 -39303,11052 -24324,0 -42396,-8619 -54210,-25854 -555,-1113 -834,-1806 -834,-2085 0,-834 696,-1737 2085,-2712l5421 -3753c834,-693 1668,-1041 2502,-1041 972,0 1737,417 2295,1251 6114,7785 12162,13344 18138,16680 5976,3336 14040,5004 24186,5004 12093,0 21546,-2259 28356,-6777 6810,-4518 10218,-11571 10218,-21162 0,-5976 -1773,-10980 -5319,-15012 -3543,-4032 -10182,-7854 -19911,-11469l-31482 -11466c-10704,-3753 -18489,-9036 -23352,-15846 -4866,-6810 -7299,-14247 -7299,-22311 0,-8616 2121,-16122 6360,-22518 4239,-6393 10215,-11292 17931,-14697 7713,-3405 16575,-5109 26583,-5109 19320,0 35097,6810 47331,20433 555,834 834,1458 834,1875 0,558 -279,1113 -834,1668l-7506 6048c-417,417 -834,624 -1251,624 -558,0 -1251,-555 -2085,-1668zm61677 27939c-1113,0 -1668,558 -1668,1668l0 70056c0,6813 1008,11400 3024,13761 2016,2364 5385,3546 10113,3546l15219 0c1389,0 2085,696 2085,2085l0 5628c0,1113 -696,1878 -2085,2295 -3336,555 -9381,834 -18138,834 -8619,0 -14769,-1980 -18453,-5943 -3684,-3960 -5526,-10389 -5526,-19287l0 -72765c0,-1251 -624,-1878 -1875,-1878l-17724 0c-1251,0 -1875,-555 -1875,-1668l0 -7296c0,-1113 555,-1668 1668,-1668l18555 0c696,0 1182,-555 1461,-1668l2085 -33360c0,-1668 624,-2502 1875,-2502l7506 0c1530,0 2295,903 2295,2709l0 33153c0,1113 486,1668 1458,1668l27522 0c1113,0 1668,555 1668,1668l0 7296c0,1113 -624,1668 -1875,1668l-27315 0zm110259 85902c-5559,5421 -11433,9453 -17619,12093 -6186,2643 -12960,3963 -20328,3963 -10980,0 -19599,-2712 -25854,-8133 -6255,-5421 -9381,-12786 -9381,-22101 0,-10842 4551,-19389 13656,-25644 9105,-6255 22413,-10008 39927,-11259l18558 -1461c2361,-276 3543,-1320 3543,-3126l0 -6048c0,-8061 -2538,-14454 -7611,-19182 -5073,-4725 -11919,-7089 -20535,-7089 -12789,0 -23424,5910 -31902,17724 -417,696 -834,1113 -1251,1251 -417,138 -903,69 -1458,-210l-8550 -3543c-555,-279 -834,-627 -834,-1044 0,-555 210,-1110 627,-1668 4308,-7227 10215,-12891 17721,-16992 7506,-4101 16263,-6150 26271,-6150 12927,0 22971,3162 30129,9486 7158,6324 10737,15117 10737,26376l0 74016c0,1809 -834,2712 -2502,2712l-7713 0c-1668,0 -2502,-903 -2502,-2712l-417 -10842c-279,-972 -627,-1458 -1044,-1458 -417,0 -972,348 -1668,1041zm2502 -40032c0,-2361 -1041,-3405 -3126,-3126l-15639 1251c-28635,2085 -42951,10842 -42951,26271 0,6393 2295,11466 6882,15219 4587,3753 10701,5631 18348,5631 4587,0 9102,-834 13551,-2502 4449,-1668 8478,-3891 12093,-6672 7227,-5976 10842,-11886 10842,-17724l0 -18348zm51879 50874c0,1251 -210,2085 -627,2502 -417,417 -1251,627 -2502,627l-7923 0c-972,0 -1668,-174 -2085,-522 -417,-348 -624,-1008 -624,-1980l207 -149703c0,-972 138,-1632 417,-1980 279,-348 834,-522 1668,-522l9384 0c1389,0 2085,834 2085,2502l0 149076zm71685 5214c-10287,0 -19356,-2397 -27210,-7194 -7854,-4794 -13935,-11466 -18243,-20016 -4311,-8547 -6465,-18381 -6465,-29502 0,-11259 2190,-21303 6567,-30129 4380,-8826 10530,-15672 18453,-20538 7923,-4863 16959,-7296 27105,-7296 10146,0 19146,2433 27000,7296 7854,4866 13935,11676 18246,20433 4308,8757 6462,18696 6462,29817 0,11121 -2154,21024 -6462,29712 -4311,8688 -10392,15429 -18246,20223 -7854,4797 -16923,7194 -27207,7194zm417 -11052c11676,0 20814,-4134 27417,-12405 6603,-8271 9903,-19494 9903,-33672 0,-14178 -3372,-25506 -10113,-33987 -6741,-8478 -15879,-12717 -27417,-12717 -11676,0 -20919,4239 -27729,12717 -6813,8481 -10218,19809 -10218,33987 0,14178 3405,25401 10218,33672 6810,8271 16122,12405 27939,12405zm209919 -101538c696,0 1251,243 1668,729 417,486 486,1077 210,1773l-31485 105501c-417,1668 -1599,2502 -3543,2502l-8340 0c-2226,0 -3615,-834 -4170,-2502l-26481 -83193c-417,-1251 -834,-1875 -1251,-1875 -279,0 -624,624 -1041,1875l-25230 83193c-417,1668 -1599,2502 -3543,2502l-8757 0c-2364,0 -3753,-834 -4170,-2502l-32736 -105294 -207 -834c0,-555 207,-1005 624,-1353 417,-348 972,-522 1668,-522l9174 0c1530,0 2502,696 2919,2085l26688 86736c417,1389 903,2085 1461,2085 555,0 1041,-765 1458,-2295l26271 -86943c417,-1113 1320,-1668 2712,-1668l7713 0c1530,0 2502,696 2919,2085l27522 86736c417,1389 903,2085 1461,2085 555,0 1041,-765 1458,-2295l25437 -86736c696,-1251 1737,-1875 3129,-1875l6462 0zm25818 61506c0,7089 1737,13728 5211,19914 3474,6186 8166,11085 14073,14697 5907,3615 12336,5421 19287,5421 15012,0 26409,-6045 34194,-18138 417,-696 834,-1077 1251,-1146 417,-69 903,33 1461,312l7089 3960c417,279 660,627 729,1044 69,417 -105,903 -522,1458 -5142,8064 -11397,14007 -18765,17829 -7368,3822 -16125,5733 -26271,5733 -10146,0 -19146,-2364 -27000,-7089 -7854,-4725 -14004,-11364 -18453,-19911 -4449,-8550 -6672,-18315 -6672,-29295 0,-11814 2259,-22137 6777,-30963 4518,-8826 10701,-15603 18555,-20328 7854,-4725 16716,-7089 26586,-7089 15150,0 27138,4968 35964,14907 8826,9939 13242,23664 13242,41178l0 1251c0,975 -174,1740 -522,2295 -348,555 -1146,834 -2397,834l-82359 0c-972,0 -1458,1041 -1458,3126zm69222 -12927c1389,0 2328,-207 2814,-624 486,-417 729,-1182 729,-2295 0,-6672 -1425,-12855 -4275,-18555 -2850,-5700 -6915,-10218 -12195,-13554 -5283,-3336 -11469,-5004 -18558,-5004 -7785,0 -14526,1914 -20223,5736 -5700,3822 -10044,8790 -13032,14907 -2988,6117 -4413,12579 -4275,19389l69015 0zm147789 19599c0,15846 -3789,27210 -11364,34092 -7575,6879 -19284,10320 -35130,10320 -7230,0 -15708,-972 -25437,-2919 -2226,-417 -3753,-1215 -4587,-2397 -834,-1182 -1182,-3024 -1044,-5526l1878 -21477c276,-3195 1806,-4587 4587,-4170 834,141 2430,489 4794,1044 2364,555 4935,834 7716,834 5559,0 9693,-1530 12405,-4587 2709,-3057 4065,-8202 4065,-15429l0 -97788c0,-2919 1251,-4377 3753,-4377l34821 0c2361,0 3543,1320 3543,3960l0 108420zm16949 -108003c0,-1389 312,-2466 936,-3231 627,-765 1494,-1146 2607,-1146l35028 0c2364,0 3546,1320 3546,3960l0 117387c0,972 171,1668 519,2085 348,417 939,624 1773,624l64635 0c2919,0 4380,1182 4380,3546l0 22935c0,1251 -417,2259 -1251,3024 -834,765 -2016,1146 -3546,1146l-103623 0c-1947,0 -3267,-381 -3963,-1146 -696,-765 -1041,-1983 -1041,-3651l0 -145533z"/>
  </g>
 </g>
</svg>
